<svg xmlns="http://www.w3.org/2000/svg" width="32" height="32" fill="none" viewBox="0 0 32 32">
  <!-- <path fill="#fff" d="M0 0h32v32H0z"/> -->
  <path fill="#000" d="M26.714 3c-2.367 0-4.285 1.843-4.285 4.117v17.766c0 .568-.48 1.03-1.072 1.03-.591 0-1.071-.462-1.071-1.03V7.118C20.286 4.842 18.366 3 16 3c-2.367 0-4.286 1.843-4.286 4.117v17.766c0 .568-.48 1.03-1.071 1.03-.592 0-1.072-.462-1.072-1.03V7.118C9.571 4.842 7.653 3 5.286 3S1 4.843 1 7.117V29h3.214v-4.117h2.143c0 2.274 1.92 4.117 4.286 4.117 2.366 0 4.286-1.843 4.286-4.117V7.118c0-.569.48-1.03 1.071-1.03.592 0 1.071.461 1.071 1.03v17.765c0 2.274 1.919 4.117 4.286 4.117 2.368 0 4.286-1.843 4.286-4.117V7.118c0-.569.48-1.03 1.071-1.03.592 0 1.072.461 1.072 1.03V29H31V7.117C31 4.843 29.082 3 26.714 3Zm-22.5 18.794V7.117c0-.568.48-1.029 1.072-1.029.591 0 1.071.461 1.071 1.03v14.676H4.214Z"/>
  <style>
    path { fill: #000; }
    @media (prefers-color-scheme: dark) {
      path { fill: #fff; }
    }
  </style>
</svg>
